<svg width="449" height="661" viewBox="0 0 449 661" fill="none" xmlns="http://www.w3.org/2000/svg">
<path d="M209.234 0H448.602V661H209.234V0Z" fill="#9BB226"/>
<path d="M25.4553 167.451C25.4553 155.645 32.3731 145.422 42.3664 140.627V134.91C42.3664 116.91 56.0617 102.051 73.5757 100.19V69.0092C73.5757 49.7564 89.2528 34.0933 108.524 34.0933H314.056C333.309 34.0933 348.977 49.7564 348.977 69.0092V100.19C366.5 102.046 380.196 116.91 380.196 134.915V141.061C389.721 146.02 396.237 155.99 396.237 167.456V184.793C396.237 196.254 389.717 206.224 380.196 211.178V585.036C380.196 604.303 364.528 619.975 345.27 619.975H77.2963C58.0388 619.975 42.371 604.303 42.371 585.036V211.613C32.373 206.822 25.46 196.6 25.46 184.797V167.451H25.4553ZM44.7735 184.788C44.7735 190.532 49.4244 195.193 55.1783 195.193C57.6602 195.193 59.9038 194.286 61.6847 192.832V585.031C61.6847 593.608 68.7052 600.652 77.2963 600.652H345.27C353.861 600.652 360.882 593.603 360.882 585.031V193.505C362.513 194.571 364.448 195.193 366.533 195.193C372.278 195.193 376.928 190.532 376.928 184.788V167.451C376.928 161.707 372.278 157.037 366.533 157.037C364.448 157.037 362.518 157.669 360.882 158.725V134.905C360.882 126.324 353.866 119.308 345.27 119.308H329.659V69.0045C329.659 60.4228 322.652 53.4068 314.056 53.4068H108.524C99.9239 53.4068 92.894 60.4228 92.894 69.0045V119.308H77.2916C68.7005 119.308 61.68 126.324 61.68 134.905V159.384C59.8991 157.94 57.6555 157.037 55.1736 157.037C49.4197 157.037 44.7688 161.707 44.7688 167.451V184.788H44.7735Z" fill="#F4F4F4"/>
<path d="M325.111 169.62C325.111 302.002 325.111 434.406 325.111 566.816C249.226 566.816 173.346 566.816 97.4513 566.816C97.4513 434.406 97.4513 302.002 97.4513 169.62C132.727 149.498 172.009 139.435 211.286 139.435C250.562 139.435 289.839 149.493 325.111 169.62ZM116.77 547.498H305.797V181.175C276.546 166.475 244.098 158.753 211.286 158.753C178.473 158.753 146.025 166.479 116.77 181.179V547.498Z" fill="#F4F4F4"/>
<path d="M230.01 120.098C223.78 120.458 217.535 120.64 211.295 120.64C204.55 120.64 197.815 120.387 191.084 119.967C179.123 119.214 167.194 117.84 155.359 115.755C149.194 114.671 143.057 113.404 136.953 111.955C136.953 100.265 136.953 88.5705 136.953 76.8757C149.246 74.7303 161.613 73.1225 174.019 72.0521C186.419 70.9817 198.857 70.4441 211.295 70.4441C223.733 70.4441 236.171 70.9817 248.576 72.0521C260.981 73.1225 273.354 74.7303 285.656 76.8757C285.656 88.5705 285.656 100.265 285.656 111.955C279.547 113.404 273.41 114.671 267.24 115.755C254.909 117.929 242.476 119.373 230.01 120.098Z" fill="#F4F4F4"/>
<path d="M280.977 240.49C280.977 268.437 264.403 292.527 240.597 303.624C276.392 315.861 302.231 349.753 302.231 389.637C302.231 439.791 261.43 480.592 211.276 480.592C161.118 480.592 120.313 439.791 120.313 389.637C120.313 349.753 146.161 315.861 181.955 303.624C158.154 292.527 141.585 268.437 141.585 240.49C141.585 202.059 172.845 170.794 211.272 170.794C249.712 170.794 280.977 202.059 280.977 240.49ZM139.636 389.642C139.636 429.218 171.71 461.278 211.281 461.278C250.848 461.278 282.917 429.218 282.917 389.642C282.917 350.08 250.848 318.006 211.281 318.006C171.71 318.001 139.636 350.08 139.636 389.642ZM211.276 194.908C186.106 194.908 165.703 215.31 165.703 240.49C165.703 265.66 186.106 286.082 211.276 286.082C236.456 286.082 256.868 265.66 256.868 240.49C256.873 215.31 236.461 194.908 211.276 194.908Z" fill="#F4F4F4"/>
<path d="M217.212 338.932L227.865 327.77C229.725 325.821 232.268 324.779 234.853 324.779C236.143 324.779 237.442 325.036 238.676 325.569C242.387 327.167 244.706 330.911 244.495 334.945L243.692 350.187C255.475 359.849 262.355 374.217 262.355 389.637C262.355 417.808 239.443 440.73 211.276 440.73C183.115 440.73 160.207 417.808 160.207 389.637C160.207 361.476 183.115 338.568 211.276 338.568C213.23 338.572 215.212 338.694 217.212 338.932ZM189.186 389.642C189.186 401.837 199.095 411.76 211.281 411.76C223.467 411.76 233.38 401.837 233.38 389.642C233.38 382.14 229.594 375.204 223.256 371.09C222.148 370.371 221.129 369.548 220.209 368.641C218.923 368.608 217.628 368.454 216.348 368.16C214.548 367.748 212.893 367.547 211.286 367.547C199.1 367.547 189.186 377.457 189.186 389.642Z" fill="#F4F4F4"/>
<path d="M17.3457 245.711C26.9371 245.711 34.6915 253.475 34.6915 263.038V334.59C34.6915 344.181 26.9371 351.945 17.3457 351.945C7.77306 351.945 -5.34058e-05 344.181 -5.34058e-05 334.59V263.038C-5.34058e-05 253.475 7.77306 245.711 17.3457 245.711Z" fill="#F4F4F4"/>
<path d="M405.987 370.319C415.569 370.319 423.343 380.233 423.343 392.465V483.85C423.343 496.101 415.569 506.014 405.987 506.014C396.424 506.014 388.66 496.101 388.66 483.85V392.465C388.66 380.233 396.424 370.319 405.987 370.319Z" fill="#F4F4F4"/>
</svg>
